<?xml version="1.0" encoding="UTF-8" standalone="no"?>
<!-- Created with matplotlib (http://matplotlib.org/) -->

<svg
   xmlns:dc="http://purl.org/dc/elements/1.1/"
   xmlns:cc="http://creativecommons.org/ns#"
   xmlns:rdf="http://www.w3.org/1999/02/22-rdf-syntax-ns#"
   xmlns:svg="http://www.w3.org/2000/svg"
   xmlns="http://www.w3.org/2000/svg"
   xmlns:sodipodi="http://sodipodi.sourceforge.net/DTD/sodipodi-0.dtd"
   xmlns:inkscape="http://www.inkscape.org/namespaces/inkscape"
   height="72pt"
   version="1.1"
   viewBox="0 0 72 72"
   width="72pt"
   id="svg2"
   inkscape:version="0.91 r13725"
   sodipodi:docname="saveimg.svg"
   inkscape:export-filename="saveimg_large.png"
   inkscape:export-xdpi="48"
   inkscape:export-ydpi="48">
  <metadata
     id="metadata17">
    <rdf:RDF>
      <cc:Work
         rdf:about="">
        <dc:format>image/svg+xml</dc:format>
        <dc:type
           rdf:resource="http://purl.org/dc/dcmitype/StillImage" />
        <dc:title />
      </cc:Work>
    </rdf:RDF>
  </metadata>
  <sodipodi:namedview
     pagecolor="#ffffff"
     bordercolor="#666666"
     borderopacity="1"
     objecttolerance="10"
     gridtolerance="10"
     guidetolerance="10"
     inkscape:pageopacity="0"
     inkscape:pageshadow="2"
     inkscape:window-width="1486"
     inkscape:window-height="1028"
     id="namedview15"
     showgrid="false"
     inkscape:zoom="3.7083822"
     inkscape:cx="48.845457"
     inkscape:cy="-14.205792"
     inkscape:window-x="67"
     inkscape:window-y="24"
     inkscape:window-maximized="0"
     inkscape:current-layer="svg2"
     inkscape:snap-bbox="true"
     inkscape:bbox-nodes="true"
     inkscape:bbox-paths="true"
     inkscape:snap-bbox-edge-midpoints="true"
     inkscape:snap-bbox-midpoints="false"
     inkscape:snap-nodes="false"
     inkscape:snap-page="true" />
  <defs
     id="defs4">
    <style
       type="text/css"
       id="style6">
*{stroke-linecap:butt;stroke-linejoin:round;}
  </style>
  </defs>
  <text
     xml:space="preserve"
     style="font-style:normal;font-variant:normal;font-weight:normal;font-stretch:normal;font-size:33.02267838px;line-height:125%;font-family:'Liberation Sans';-inkscape-font-specification:'Liberation Sans';letter-spacing:0px;word-spacing:0px;fill:#000000;fill-opacity:1;stroke:#000000;stroke-width:1.51742017;stroke-linecap:butt;stroke-linejoin:miter;stroke-miterlimit:4;stroke-dasharray:none;stroke-opacity:1"
     x="4.5171971"
     y="65.503181"
     id="text4149"
     sodipodi:linespacing="125%"><tspan
       sodipodi:role="line"
       id="tspan4151"
       style="stroke:#000000;stroke-width:1.51742017;stroke-linecap:butt;stroke-linejoin:round;stroke-miterlimit:4;stroke-dasharray:none;stroke-opacity:1"
       x="4.5171971"
       y="65.503181">IMG</tspan></text>
  <g
     id="figure_1"
     style="stroke-linecap:butt;stroke-linejoin:round">
    <g
       id="patch_1"
       style="stroke-linecap:butt;stroke-linejoin:round">
      <path
         inkscape:connector-curvature="0"
         d="M 0,72 72,72 72,0 0,0 Z"
         style="opacity:0;fill:none;stroke-linecap:butt;stroke-linejoin:round"
         id="path10" />
    </g>
    <g
       id="text_1"
       style="stroke-linecap:butt;stroke-linejoin:round">
      <path
         d="m 40.855625,26.5175 c 0,0.6375 -0.57375,1.21125 -1.21125,1.21125 l -7.28875,0 c -0.648125,0 -1.21125,-0.57375 -1.21125,-1.21125 l 0,-12.144375 c 0,-0.648125 0.563125,-1.21125 1.21125,-1.21125 l 7.28875,0 c 0.6375,0 1.21125,0.563125 1.21125,1.21125 z m 24.28875,10.951446 0,-9.740196 c 0,-2.008125 -1.136875,-4.78125 -2.581875,-6.22625 L 51.9375,10.8775 C 50.4925,9.443125 47.719375,8.295625 45.71125,8.295625 l -35.21125,0 c -2.008125,0 -3.644375,1.63625 -3.644375,3.644375 l 0,25.528946 4.855625,0 0,-24.307071 4.855625,0 0,15.778125 c 0,2.01875 1.63625,3.644375 3.644375,3.644375 l 21.855625,0 c 2.01875,0 3.644375,-1.625625 3.644375,-3.644375 l 0,-15.778125 c 0.765,0 2.241875,0.605625 2.773125,1.136875 L 59.14125,24.955625 c 0.499375,0.499375 1.1475,2.050625 1.1475,2.773125 l 0,9.740196 z"
         id="path13"
         inkscape:connector-curvature="0"
         style="stroke-linecap:butt;stroke-linejoin:round"
         sodipodi:nodetypes="ssssssssscsscsssccccsssscssscc" />
    </g>
  </g>
</svg>
